<svg width="1437" height="786" viewBox="0 0 1437 786" fill="none" xmlns="http://www.w3.org/2000/svg">
<rect x="-3" width="1440" height="487.848" fill="url(#paint0_linear)"/>
<ellipse opacity="0.5" rx="563" ry="557" transform="matrix(-1 0 0 1 58 229)" fill="url(#paint1_linear)"/>
<path d="M254.58 4.7337C227.864 4.7337 202.433 10.7102 179.628 21.3705C176.046 22.9411 172.45 24.8174 168.882 26.7077L184.523 40.1895L207.97 16.6727L248.386 51.1834L272.176 26.388L346.485 90.7115L298.905 141.234L317.486 156.911L270.535 207.433L289.116 223.111L221.984 294.968L182.24 259.818L147.689 297.484C154.54 302.501 162.032 307.532 170.166 311.924C195.857 325.929 224.811 333.27 254.251 333.245C348.44 333.231 425.019 259.498 425.019 168.85C425.347 78.7863 348.768 4.7337 254.58 4.7337ZM285.876 158.815L245.132 123.665L208.627 162.888L249.371 198.038L285.876 158.815ZM256.863 226.586L216.447 191.144L179.628 230.352L220.372 265.502L256.863 226.586ZM314.846 91.9902L274.117 56.8402L237.626 96.0625L278.355 131.199L314.846 91.9902ZM240.237 73.1573L209.925 46.8053L182.539 75.9788L212.851 102.651L240.237 73.1573ZM186.121 193.952L155.824 167.599L128.452 197.079L158.764 223.459L186.121 193.952ZM159.406 253.258L129.094 226.892L101.737 256.079L132.034 282.737L159.406 253.258ZM147.019 117.703L126.825 100.135L108.572 119.593L128.78 137.161L147.019 117.703ZM173.092 59.6616L152.884 41.7878L134.617 61.5519L154.853 79.1199L173.092 59.6616ZM121.288 175.758L101.08 158.19L82.4993 177.648L103.021 195.216L121.288 175.758ZM212.195 132.144L181.883 105.792L154.511 134.965L184.823 161.331L212.195 132.144Z" fill="url(#paint2_linear)"/>
<defs>
<linearGradient id="paint0_linear" x1="-3.00001" y1="6.00165" x2="1227.73" y2="808.704" gradientUnits="userSpaceOnUse">
<stop stop-color="#0159AC"/>
<stop offset="1" stop-color="#1473CE"/>
</linearGradient>
<linearGradient id="paint1_linear" x1="73.5339" y1="1.94588e-05" x2="621.215" y2="1021.02" gradientUnits="userSpaceOnUse">
<stop stop-color="white" stop-opacity="0.2"/>
<stop offset="1" stop-color="#D8ECFF" stop-opacity="0"/>
</linearGradient>
<linearGradient id="paint2_linear" x1="402.651" y1="4.73371" x2="243.946" y2="309.932" gradientUnits="userSpaceOnUse">
<stop stop-color="white" stop-opacity="0.2"/>
<stop offset="1" stop-color="#D8ECFF" stop-opacity="0"/>
</linearGradient>
</defs>
</svg>
