<svg width="756" height="899" viewBox="0 0 756 899" fill="none" xmlns="http://www.w3.org/2000/svg">
<rect width="756" height="900" fill="url(#paint0_linear)"/>
<path d="M395.257 149C435.738 149 474.272 158.078 508.827 174.271C514.254 176.657 519.704 179.507 525.11 182.378L501.41 202.856L465.882 167.135L404.642 219.556L368.595 181.892L255.999 279.598L328.093 356.34L299.939 380.154L371.082 456.895L342.927 480.71L444.647 589.858L504.87 536.466L557.221 593.679C546.842 601.3 535.489 608.943 523.164 615.614C484.236 636.886 440.365 648.038 395.755 648C253.036 647.979 137.002 535.98 137.002 398.289C136.504 261.484 252.539 149 395.257 149ZM347.836 383.046L409.573 329.654L464.887 389.232L403.15 442.624L347.836 383.046ZM391.798 485.987L453.037 432.152L508.827 491.709L447.09 545.101L391.798 485.987ZM303.939 281.54L365.654 228.148L420.947 287.726L359.232 341.097L303.939 281.54ZM416.99 252.934L462.919 212.906L504.416 257.219L458.486 297.733L416.99 252.934ZM498.988 436.417L544.896 396.389L586.371 441.167L540.441 481.237L498.988 436.417ZM539.468 526.501L585.398 486.452L626.851 530.787L580.943 571.279L539.468 526.501ZM558.238 320.597L588.836 293.912L616.493 323.468L585.873 350.154L558.238 320.597ZM518.731 232.434L549.35 205.284L577.029 235.305L546.366 261.991L518.731 232.434ZM597.226 408.781L627.846 382.096L656 411.653L624.905 438.338L597.226 408.781ZM459.481 342.532L505.41 302.504L546.885 346.818L500.956 386.867L459.481 342.532Z" fill="url(#paint1_linear)"/>
<path d="M577.943 55C579.815 55 581.597 55.43 583.195 56.197C583.446 56.31 583.698 56.445 583.948 56.581L582.852 57.551L581.209 55.859L578.377 58.342L576.71 56.558L571.503 61.186L574.837 64.821L573.535 65.949L576.825 69.584L575.523 70.712L580.227 75.882L583.012 73.353L585.433 76.063C584.953 76.424 584.428 76.786 583.858 77.102C582.058 78.1096 580.029 78.6378 577.966 78.636C571.366 78.635 566 73.33 566 66.808C565.977 60.328 571.343 55 577.943 55ZM575.75 66.086L578.605 63.557L581.163 66.379L578.308 68.908L575.75 66.086ZM577.783 70.962L580.615 68.412L583.195 71.233L580.34 73.762L577.783 70.962ZM573.72 61.278L576.574 58.749L579.131 61.571L576.277 64.099L573.72 61.278ZM578.948 59.923L581.072 58.027L582.991 60.126L580.867 62.045L578.948 59.923ZM582.74 68.614L584.863 66.718L586.781 68.839L584.657 70.737L582.74 68.614ZM584.612 72.881L586.736 70.984L588.653 73.084L586.53 75.002L584.612 72.881ZM585.48 63.128L586.895 61.864L588.174 63.264L586.758 64.528L585.48 63.128ZM583.653 58.952L585.069 57.666L586.349 59.088L584.931 60.352L583.653 58.952ZM587.283 67.305L588.699 66.041L590.001 67.441L588.563 68.705L587.283 67.305ZM580.913 64.167L583.037 62.271L584.955 64.37L582.831 66.267L580.913 64.167Z" fill="white"/>
<path d="M467.784 69V58.934H476.184C476.651 58.934 477.047 59.102 477.374 59.438C477.701 59.7647 477.864 60.1567 477.864 60.614V63.568C477.864 64.0253 477.701 64.422 477.374 64.758C477.047 65.0847 476.651 65.248 476.184 65.248H468.918V69H467.784ZM469.464 64.1H476.184C476.333 64.1 476.459 64.0487 476.562 63.946C476.674 63.8433 476.73 63.7173 476.73 63.568V60.614C476.73 60.4647 476.674 60.3387 476.562 60.236C476.459 60.124 476.333 60.068 476.184 60.068H469.464C469.315 60.068 469.184 60.124 469.072 60.236C468.969 60.3387 468.918 60.4647 468.918 60.614V63.568C468.918 63.7173 468.969 63.8433 469.072 63.946C469.184 64.0487 469.315 64.1 469.464 64.1ZM478.872 69V65.22C478.872 64.744 479.036 64.3427 479.362 64.016C479.689 63.6893 480.09 63.526 480.566 63.526H487.356C487.506 63.526 487.632 63.4747 487.734 63.372C487.846 63.26 487.902 63.1293 487.902 62.98V60.614C487.902 60.4647 487.846 60.3387 487.734 60.236C487.632 60.124 487.506 60.068 487.356 60.068H480.566C480.417 60.068 480.286 60.124 480.174 60.236C480.072 60.3387 480.02 60.4647 480.02 60.614V61.006H478.872V60.614C478.872 60.138 479.036 59.7367 479.362 59.41C479.689 59.074 480.09 58.906 480.566 58.906H487.356C487.823 58.906 488.22 59.074 488.546 59.41C488.882 59.7367 489.05 60.138 489.05 60.614V62.98C489.05 63.4467 488.882 63.848 488.546 64.184C488.22 64.5107 487.823 64.674 487.356 64.674H480.566C480.417 64.674 480.286 64.73 480.174 64.842C480.072 64.9447 480.02 65.0707 480.02 65.22V67.306C480.02 67.4553 480.072 67.586 480.174 67.698C480.286 67.8007 480.417 67.852 480.566 67.852H489.05V69H478.872ZM490.479 69V58.934H498.879C499.346 58.934 499.743 59.102 500.069 59.438C500.396 59.7647 500.559 60.1567 500.559 60.614V63.568C500.559 64.0253 500.396 64.422 500.069 64.758C499.743 65.0847 499.346 65.248 498.879 65.248H491.613V69H490.479ZM492.159 64.1H498.879C499.029 64.1 499.155 64.0487 499.257 63.946C499.369 63.8433 499.425 63.7173 499.425 63.568V60.614C499.425 60.4647 499.369 60.3387 499.257 60.236C499.155 60.124 499.029 60.068 498.879 60.068H492.159C492.01 60.068 491.879 60.124 491.767 60.236C491.665 60.3387 491.613 60.4647 491.613 60.614V63.568C491.613 63.7173 491.665 63.8433 491.767 63.946C491.879 64.0487 492.01 64.1 492.159 64.1ZM505.368 69V58.92H506.922L511.108 63.904L515.294 58.92H516.848V69H515.714V60.208L511.108 65.682L506.502 60.208V69H505.368ZM519.98 69C519.514 69 519.112 68.8367 518.776 68.51C518.45 68.174 518.286 67.7727 518.286 67.306V62.574C518.286 62.1073 518.45 61.7107 518.776 61.384C519.112 61.048 519.514 60.88 519.98 60.88H524.852C525.328 60.88 525.73 61.048 526.056 61.384C526.392 61.7107 526.56 62.1073 526.56 62.574V67.306C526.56 67.7727 526.392 68.174 526.056 68.51C525.73 68.8367 525.328 69 524.852 69H519.98ZM519.98 67.852H524.852C525.002 67.852 525.128 67.8007 525.23 67.698C525.342 67.586 525.398 67.4553 525.398 67.306V62.574C525.398 62.4247 525.342 62.2987 525.23 62.196C525.128 62.084 525.002 62.028 524.852 62.028H519.98C519.831 62.028 519.7 62.084 519.588 62.196C519.486 62.2987 519.434 62.4247 519.434 62.574V67.306C519.434 67.4553 519.486 67.586 519.588 67.698C519.7 67.8007 519.831 67.852 519.98 67.852ZM527.817 69V60.88H534.397C534.863 60.88 535.26 61.048 535.587 61.384C535.923 61.7107 536.091 62.1073 536.091 62.574V69H534.943V62.574C534.943 62.4247 534.887 62.2987 534.775 62.196C534.672 62.084 534.546 62.028 534.397 62.028H529.525C529.375 62.028 529.245 62.084 529.133 62.196C529.021 62.2987 528.965 62.4247 528.965 62.574V69H527.817ZM539.217 69C538.75 69 538.349 68.8367 538.013 68.51C537.686 68.174 537.523 67.7727 537.523 67.306V62.574C537.523 62.1073 537.686 61.7107 538.013 61.384C538.349 61.048 538.75 60.88 539.217 60.88H544.089C544.565 60.88 544.966 61.048 545.293 61.384C545.629 61.7107 545.797 62.1073 545.797 62.574V65.514H538.671V67.306C538.671 67.4553 538.722 67.586 538.825 67.698C538.937 67.8007 539.067 67.852 539.217 67.852H545.797V69H539.217ZM538.671 64.366H544.635V62.574C544.635 62.4247 544.579 62.2987 544.467 62.196C544.364 62.084 544.238 62.028 544.089 62.028H539.217C539.067 62.028 538.937 62.084 538.825 62.196C538.722 62.2987 538.671 62.4247 538.671 62.574V64.366ZM548.588 72.22V71.058H553.656C553.805 71.058 553.931 71.002 554.034 70.89C554.146 70.7873 554.202 70.6613 554.202 70.512V69H548.784C548.317 69 547.916 68.8367 547.58 68.51C547.253 68.174 547.09 67.7727 547.09 67.306V60.908H548.238V67.306C548.238 67.4553 548.289 67.586 548.392 67.698C548.504 67.8007 548.635 67.852 548.784 67.852H553.656C553.805 67.852 553.931 67.8007 554.034 67.698C554.146 67.586 554.202 67.4553 554.202 67.306V60.908H555.35V70.512C555.35 70.988 555.187 71.3893 554.86 71.716C554.533 72.052 554.132 72.22 553.656 72.22H548.588Z" fill="white"/>
<defs>
<linearGradient id="paint0_linear" x1="-3.34751e-06" y1="11.0721" x2="890.319" y2="176.321" gradientUnits="userSpaceOnUse">
<stop stop-color="#0159AC"/>
<stop offset="1" stop-color="#1473CE"/>
</linearGradient>
<linearGradient id="paint1_linear" x1="170.893" y1="149" x2="412.303" y2="612.102" gradientUnits="userSpaceOnUse">
<stop stop-color="white" stop-opacity="0.2"/>
<stop offset="1" stop-color="#D8ECFF" stop-opacity="0"/>
</linearGradient>
</defs>
</svg>
