<svg width="756" height="899" viewBox="0 0 756 899" fill="none" xmlns="http://www.w3.org/2000/svg">
<rect width="756" height="900" fill="url(#paint0_linear)"/>
<path d="M395.257 149C435.738 149 474.272 158.078 508.827 174.271C514.254 176.657 519.704 179.507 525.11 182.378L501.41 202.856L465.882 167.135L404.642 219.556L368.595 181.892L255.999 279.598L328.093 356.34L299.939 380.154L371.082 456.895L342.927 480.71L444.647 589.858L504.87 536.466L557.221 593.679C546.842 601.3 535.489 608.943 523.164 615.614C484.236 636.886 440.365 648.038 395.755 648C253.036 647.979 137.002 535.98 137.002 398.289C136.504 261.484 252.539 149 395.257 149ZM347.836 383.046L409.573 329.654L464.887 389.232L403.15 442.624L347.836 383.046ZM391.798 485.987L453.037 432.152L508.827 491.709L447.09 545.101L391.798 485.987ZM303.939 281.54L365.654 228.148L420.947 287.726L359.232 341.097L303.939 281.54ZM416.99 252.934L462.919 212.906L504.416 257.219L458.486 297.733L416.99 252.934ZM498.988 436.417L544.896 396.389L586.371 441.167L540.441 481.237L498.988 436.417ZM539.468 526.501L585.398 486.452L626.851 530.787L580.943 571.279L539.468 526.501ZM558.238 320.597L588.836 293.912L616.493 323.468L585.873 350.154L558.238 320.597ZM518.731 232.434L549.35 205.284L577.029 235.305L546.366 261.991L518.731 232.434ZM597.226 408.781L627.846 382.096L656 411.653L624.905 438.338L597.226 408.781ZM459.481 342.532L505.41 302.504L546.885 346.818L500.956 386.867L459.481 342.532Z" fill="url(#paint1_linear)"/>
<defs>
<linearGradient id="paint0_linear" x1="-3.34751e-06" y1="11.0721" x2="890.319" y2="176.321" gradientUnits="userSpaceOnUse">
<stop stop-color="#0159AC"/>
<stop offset="1" stop-color="#1473CE"/>
</linearGradient>
<linearGradient id="paint1_linear" x1="170.893" y1="149" x2="412.303" y2="612.102" gradientUnits="userSpaceOnUse">
<stop stop-color="white" stop-opacity="0.2"/>
<stop offset="1" stop-color="#D8ECFF" stop-opacity="0"/>
</linearGradient>
</defs>
</svg>
