<svg id="Layer_1" enable-background="new 0 0 512 512" height="512" viewBox="0 0 512 512" width="512" xmlns="http://www.w3.org/2000/svg"><g><path d="m496 512h-480c-8.836 0-16-7.164-16-16s7.164-16 16-16h480c8.836 0 16 7.164 16 16s-7.164 16-16 16z"/><path d="m496 176h-480c-8.836 0-16-7.164-16-16v-80c0-7.249 4.874-13.592 11.877-15.46l240-64c2.701-.72 5.544-.72 8.245 0l240 64c7.004 1.868 11.878 8.211 11.878 15.46v80c0 8.836-7.164 16-16 16z"/><path d="m459 208h-22c-2.761 0-5 2.239-5 5v230c0 2.761 2.239 5 5 5h22c2.761 0 5-2.239 5-5v-230c0-2.762-2.239-5-5-5z"/><path d="m387 208h-22c-2.761 0-5 2.239-5 5v230c0 2.761 2.239 5 5 5h22c2.761 0 5-2.239 5-5v-230c0-2.762-2.239-5-5-5z"/><path d="m307 208h-22c-2.761 0-5 2.239-5 5v230c0 2.761 2.239 5 5 5h22c2.761 0 5-2.239 5-5v-230c0-2.762-2.239-5-5-5z"/><path d="m227 208h-22c-2.761 0-5 2.239-5 5v230c0 2.761 2.239 5 5 5h22c2.761 0 5-2.239 5-5v-230c0-2.762-2.239-5-5-5z"/><path d="m147 208h-22c-2.761 0-5 2.239-5 5v230c0 2.761 2.239 5 5 5h22c2.761 0 5-2.239 5-5v-230c0-2.762-2.239-5-5-5z"/><path d="m75 208h-22c-2.761 0-5 2.239-5 5v230c0 2.761 2.239 5 5 5h22c2.761 0 5-2.239 5-5v-230c0-2.762-2.239-5-5-5z"/></g></svg>