<svg width="50" height="50" viewBox="0 0 50 50" fill="none" xmlns="http://www.w3.org/2000/svg">
<g opacity="0.9">
<circle cx="25" cy="25" r="25" fill="#DEEBF5"/>
</g>
<path d="M25 15.5L16 19.5V22H18V32H16V34H34V32H32V22H34V19.5L25 15.5ZM25 17.6895L30.2012 20H30V22V32H20V22V20H19.7988L25 17.6895ZM24.7129 18.6504V20.0781C24.3739 20.1211 22.4766 20.4776 22.4766 22.7676C22.4766 26.1086 25.9355 25.1206 25.9355 27.3496C25.9355 28.4656 25.2134 28.4922 25.0664 28.4922C24.9324 28.4922 24.0527 28.5635 24.0527 26.8555H22.1621C22.1621 29.7475 24.2603 29.9765 24.5723 30.0195V31.3496H25.5742V30.0195C25.9122 29.9775 27.8242 29.6639 27.8242 27.3359C27.8242 24.1299 24.3662 24.7433 24.3652 22.7773C24.3652 21.6503 24.9851 21.6152 25.1191 21.6152C25.3641 21.6152 25.9473 21.8301 25.9473 23.2031H27.8379C27.8379 20.5761 26.0417 20.1665 25.7207 20.1055V18.6504H24.7129Z" fill="#224C6F"/>
</svg>
