<svg width="49" height="48" viewBox="0 0 49 48" fill="none" xmlns="http://www.w3.org/2000/svg">
<path d="M32.6667 22C36.0559 22 38.7713 19.32 38.7713 16C38.7713 12.68 36.0559 10 32.6667 10C29.2775 10 26.5417 12.68 26.5417 16C26.5417 19.32 29.2775 22 32.6667 22ZM16.3334 22C19.7225 22 22.4379 19.32 22.4379 16C22.4379 12.68 19.7225 10 16.3334 10C12.9442 10 10.2084 12.68 10.2084 16C10.2084 19.32 12.9442 22 16.3334 22ZM16.3334 26C11.5763 26 2.04169 28.34 2.04169 33V38H30.625V33C30.625 28.34 21.0904 26 16.3334 26ZM32.6667 26C32.0746 26 31.4009 26.04 30.6863 26.1C33.0546 27.78 34.7084 30.04 34.7084 33V38H46.9584V33C46.9584 28.34 37.4238 26 32.6667 26Z" fill="#126FC9"/>
</svg>
