<svg xmlns="http://www.w3.org/2000/svg" viewBox="0 0 849.6 252.95">
  <defs><style>.cls-1{fill:black;}.cls-2{fill:white;}</style></defs><g id="Layer_2" data-name="Layer 2"><g id="Layer_1-2" data-name="Layer 1"><polygon class="cls-1" points="7.54 36.44 88.54 141.2 0 252.95 52.75 252.95 140.66 140.57 60.91 36.44 7.54 36.44"/><polygon class="cls-1" points="225.44 36.44 173.31 36.44 145.06 73.27 171.43 106.28 225.44 36.44"/><polygon class="cls-1" points="170.8 174.22 145.06 207.87 180.85 252.95 233.6 252.95 170.8 174.22"/><path class="cls-2" d="M420.14,122.56V230.05H302.93q-33.57,0-51.32-16.17t-17.75-46.81q0-14.35,5.84-31.86l25.05-5.35,2.43,2.43q-3.9,15.57-3.89,26.51,0,16.53,10.33,24.44t35.63,7.9h76.84V122.56ZM312.41,117.7,291,93.14l27.72-22.62,15.32,17.75,20.92-17,20.91,24.56-27.24,22.62-15.56-18Z"/><path class="cls-2" d="M599.85,193.82v33.8l-2.43,2.43h-6.08q-14.6,0-24.44-6.08T550.24,203.3q-36.72,32.1-91.68,39.15l-14.1-36.23,1.94-2.92q30.15-3.15,51.07-8.27-11.43-35.25-44-92.65l30.39-17.75q28.7,51.8,40.13,101.89a92,92,0,0,0,19.21-10.21V47.66h33.56V160.74q0,18.24,3.4,24.32t14.6,6.08h2.67Z"/><path class="cls-2" d="M739.19,193.82v33.8l-2.43,2.43h-2.43q-8.76,0-14.83-3.77a68.75,68.75,0,0,1-13.38-11.55l-21.64,21.4L631,213.27q-7.54,9.73-14.59,13.26t-18,3.52h-1L595,226.89V196l2.43-4.87h3.64q5.36,0,10.34-6t14.71-22Q638,144,650.31,133.26t27.12-10.7q16.77,0,28.08,15.69t11.31,38.3a61.85,61.85,0,0,1-.73,9.24q6.81,5.36,19.21,5.35h1.46ZM670.13,161q-5.36,0-10.09,5.35t-12.28,19.45l35.5,15.32a53.85,53.85,0,0,0,3.16-18q0-9.74-4.86-15.93C678.31,163.05,674.51,161,670.13,161Z"/><path class="cls-2" d="M783.45,9.12Q791.73,0,798.77,0t11.55,7.3a28.34,28.34,0,0,1,4.5,15.07q0,14.6-13.62,26.27T762.78,63.23L757,47.66l1.7-1.7q22.13-1.7,32.58-7.05a22.74,22.74,0,0,1-11.43-3.65A9.63,9.63,0,0,1,775.18,27Q775.18,18.25,783.45,9.12Zm5.84,14.71a3.06,3.06,0,0,0,1.09,2.07,7.9,7.9,0,0,0,3.89,1.7A24.55,24.55,0,0,0,801,28a10,10,0,0,0,.24-2.68,13.7,13.7,0,0,0-1.33-6c-.9-1.86-2-2.79-3.29-2.79a6.6,6.6,0,0,0-5,2.67Q789.29,21.9,789.29,23.83Z"/><path class="cls-2" d="M849.6,193.33l-7.3,36.72H736.76l-2.43-3.4v-32.1l2.43-3.41H764a62.37,62.37,0,0,1-16.78-31.37q6.57-24.08,25.41-37.45a70.85,70.85,0,0,1,42-13.37,98.72,98.72,0,0,1,25.29,3.4v37.21l-2.19,1.7q-10.45-2.92-26.5-2.92a62.93,62.93,0,0,0-32.11,8.76,44.63,44.63,0,0,0,15.69,24.68,42.74,42.74,0,0,0,27.36,9.36h25.29Z"/></g></g>

</svg>
