<svg width="27" height="27" viewBox="0 0 27 27" fill="none" xmlns="http://www.w3.org/2000/svg">
<path d="M13.4354 0.5C15.5413 0.5 17.5459 0.973007 19.3436 1.81672C19.626 1.94102 19.9094 2.08952 20.1907 2.23913L18.9577 3.30614L17.1094 1.44491L13.9236 4.17626L12.0483 2.21383L6.19068 7.3047L9.94126 11.3033L8.47658 12.5441L12.1777 16.5426L10.713 17.7835L16.0047 23.4705L19.1377 20.6886L21.8612 23.6697C21.3213 24.0668 20.7307 24.465 20.0894 24.8126C18.0643 25.9209 15.782 26.502 13.4612 26.5C6.03656 26.4989 8.28667e-05 20.6633 8.28667e-05 13.489C-0.025791 6.36089 6.01069 0.5 13.4354 0.5ZM10.9683 12.6948L14.1801 9.91284L17.0577 13.0171L13.846 15.799L10.9683 12.6948ZM13.2554 18.0585L16.4412 15.2534L19.3436 18.3566L16.1319 21.1385L13.2554 18.0585ZM8.68469 7.4059L11.8953 4.62396L14.7718 7.72821L11.5612 10.5091L8.68469 7.4059ZM14.5659 5.91538L16.9553 3.82975L19.1141 6.13869L16.7247 8.24962L14.5659 5.91538ZM18.8317 15.4756L21.22 13.39L23.3777 15.7231L20.9883 17.811L18.8317 15.4756ZM20.9376 20.1694L23.327 18.0827L25.4836 20.3927L23.0953 22.5025L20.9376 20.1694ZM21.9141 9.44094L23.5059 8.05051L24.9447 9.59054L23.3518 10.981L21.9141 9.44094ZM19.8588 4.84727L21.4517 3.43264L22.8917 4.99687L21.2965 6.38729L19.8588 4.84727ZM23.9424 14.0357L25.5353 12.6453L27 14.1853L25.3823 15.5757L23.9424 14.0357ZM16.7765 10.5839L19.1659 8.49822L21.3235 10.8072L18.9341 12.8939L16.7765 10.5839Z" fill="white"/>
</svg>
