<svg width="50" height="50" viewBox="0 0 50 50" fill="none" xmlns="http://www.w3.org/2000/svg">
<circle cx="25" cy="25" r="25" fill="#DEEBF5"/>
<path d="M24.9545 16C26.4364 16 27.8471 16.3275 29.1122 16.9116C29.3109 16.9976 29.5103 17.1004 29.7083 17.204L28.8406 17.9427L27.54 16.6542L25.2981 18.5451L23.9784 17.1865L19.8564 20.7109L22.4957 23.4792L21.465 24.3382L24.0695 27.1064L23.0388 27.9655L26.7626 31.9027L28.9673 29.9767L30.8838 32.0405C30.5038 32.3154 30.0882 32.5911 29.637 32.8318C28.2119 33.5991 26.6058 34.0014 24.9727 34C19.748 33.9992 15.5001 29.9592 15.5001 24.9924C15.4819 20.0575 19.7297 16 24.9545 16ZM23.2185 24.4425L25.4786 22.5166L27.5036 24.6657L25.2435 26.5916L23.2185 24.4425ZM24.8278 28.1559L27.0697 26.2139L29.1122 28.3622L26.852 30.2882L24.8278 28.1559ZM21.6115 20.781L23.8708 18.8551L25.895 21.0041L23.6357 22.9293L21.6115 20.781ZM25.7501 19.7491L27.4315 18.3052L28.9507 19.9037L27.2692 21.3651L25.7501 19.7491ZM28.752 26.3677L30.4326 24.9238L31.9509 26.5391L30.2695 27.9845L28.752 26.3677ZM30.2339 29.6173L31.9153 28.1726L33.4329 29.7719L31.7522 31.2325L30.2339 29.6173ZM30.921 22.1899L32.0412 21.2273L33.0537 22.2934L31.9327 23.256L30.921 22.1899ZM29.4747 19.0096L30.5957 18.0303L31.609 19.1132L30.4864 20.0758L29.4747 19.0096ZM32.3483 25.3709L33.4693 24.4083L34.5 25.4744L33.3616 26.437L32.3483 25.3709ZM27.3057 22.9811L28.9871 21.5372L30.5054 23.1357L28.824 24.5804L27.3057 22.9811Z" fill="#0159AC"/>
</svg>
