<svg width="50" height="50" viewBox="0 0 50 50" fill="none" xmlns="http://www.w3.org/2000/svg">
<circle cx="25" cy="25" r="25" fill="#DEEBF5"/>
<path d="M16 16V18H18V16H16ZM20 16V17V24H30V16H20ZM32 16V18H34V16H32ZM22 18H28V22H22V18ZM16 19V21H18V19H16ZM32 19V21H34V19H32ZM16 22V24H18V22H16ZM32 22V24H34V22H32ZM16 26V28H19V32.5V34H20.5H31V28H34V26H16ZM21 28H22.5098C22.5628 29.111 23.6529 30 25 30C26.3471 30 27.4372 29.111 27.4902 28H29V31.0879C28.7897 31.1625 28.5987 31.2831 28.4409 31.4409C28.2831 31.5987 28.1625 31.7897 28.0879 32H21.9121C21.8375 31.7897 21.7169 31.5987 21.5591 31.4409C21.4013 31.2831 21.2103 31.1625 21 31.0879V28Z" fill="#224C6F"/>
</svg>
