<svg width="49" height="48" viewBox="0 0 49 48" fill="none" xmlns="http://www.w3.org/2000/svg">
<path d="M38.7917 6H30.2575C29.4 3.68 27.1542 2 24.5 2C21.8458 2 19.6 3.68 18.7425 6H10.2083C7.9625 6 6.125 7.8 6.125 10V38C6.125 40.2 7.9625 42 10.2083 42H38.7917C41.0375 42 42.875 40.2 42.875 38V10C42.875 7.8 41.0375 6 38.7917 6ZM24.5 6C25.6229 6 26.5417 6.9 26.5417 8C26.5417 9.1 25.6229 10 24.5 10C23.3771 10 22.4583 9.1 22.4583 8C22.4583 6.9 23.3771 6 24.5 6ZM20.4167 34L12.25 26L15.1287 23.18L20.4167 28.34L33.8713 15.16L36.75 18L20.4167 34Z" fill="#126FC9"/>
</svg>