<svg width="292" height="217" viewBox="0 0 292 217" fill="none" xmlns="http://www.w3.org/2000/svg">
  <path d="M7.54 0L88.54 104.76L0 216.51H52.75L140.66 104.13L60.91 0H7.54Z" fill="#F8C000"/>
  <path d="M225.44 0H173.31L145.06 36.83L171.43 69.84L225.44 0Z" fill="#F8C000"/>
  <path d="M170.8 137.78L145.06 171.43L180.85 216.51H233.6L170.8 137.78Z" fill="#F8C000"/>
  <path d="M291.27 113.382L283.97 150.102H178.43L176 146.702V114.602L178.43 111.192H205.67C197.15 102.586 191.319 91.6863 188.89 79.8223C193.27 63.769 201.74 51.2857 214.3 42.3723C226.522 33.5635 241.235 28.8801 256.3 29.0023C264.842 29.0368 273.343 30.1797 281.59 32.4023V69.6123L279.4 71.3123C272.433 69.3657 263.6 68.3923 252.9 68.3923C241.604 68.3776 230.513 71.4035 220.79 77.1523C223.1 86.9077 228.627 95.6014 236.48 101.832C244.235 108.036 253.909 111.346 263.84 111.192H289.13L291.27 113.382Z" fill="black"/>
  </svg>
